<?xml version="1.0" encoding="UTF-8"?>
<svg id="Layer_1" data-name="Layer 1" xmlns="http://www.w3.org/2000/svg" viewBox="0 0 13.14 13.14">
  <defs>
    <style>
      .cls-1 {
        fill: #fff;
      }

      .cls-2 {
        fill: #25395a;
      }
    </style>
  </defs>
  <circle class="cls-2" cx="6.57" cy="6.57" r="6.57"/>
  <g>
    <path class="cls-1" d="M2.31,4.35h1.47c.36,0,.69.04,1.01.12.32.08.6.21.84.39.24.18.43.41.57.69.14.28.21.63.21,1.04,0,.36-.07.68-.2.95-.14.27-.32.5-.55.69-.23.19-.5.33-.8.42-.3.1-.62.14-.95.14h-1.6v-4.44ZM3.29,7.89h.51c.23,0,.44-.02.63-.07s.36-.12.5-.23c.14-.11.25-.25.34-.42.08-.17.12-.39.12-.64,0-.22-.04-.41-.12-.57-.08-.16-.19-.29-.33-.4-.14-.1-.3-.18-.49-.24-.19-.05-.38-.08-.59-.08h-.58v2.64Z"/>
    <path class="cls-1" d="M9.97,5.5c-.1-.12-.21-.21-.35-.27-.14-.06-.3-.09-.49-.09s-.35.04-.51.11c-.16.07-.29.17-.41.3-.11.13-.2.28-.27.45s-.1.37-.1.57.03.4.1.57.15.32.27.45c.11.13.25.23.4.3.15.07.32.11.49.11.2,0,.38-.04.53-.13.15-.08.28-.2.38-.35l.82.61c-.19.26-.43.46-.72.58-.29.13-.59.19-.89.19-.35,0-.67-.05-.96-.16-.29-.11-.55-.26-.76-.47-.21-.2-.38-.45-.5-.74-.12-.29-.18-.61-.18-.97s.06-.68.18-.97c.12-.29.29-.53.5-.74s.47-.36.76-.47c.29-.11.61-.16.96-.16.13,0,.26.01.39.03s.27.06.4.11.26.12.38.2c.12.08.23.19.33.31l-.75.61Z"/>
  </g>
</svg>